<svg xmlns="http://www.w3.org/2000/svg" version="1.1" xmlns:xlink="http://www.w3.org/1999/xlink" xmlns:svgjs="http://svgjs.dev/svgjs" width="2000" height="2250" viewBox="0 0 2000 2250"><g transform="matrix(1,0,0,1,0,0)"><svg viewBox="0 0 320 360" data-background-color="#ffffff" preserveAspectRatio="xMidYMid meet" height="2250" width="2000" xmlns="http://www.w3.org/2000/svg" xmlns:xlink="http://www.w3.org/1999/xlink"><g id="tight-bounds" transform="matrix(1,0,0,1,0,0)"><svg viewBox="0 0 320 360" height="360" width="320"><g><svg></svg></g><g><svg viewBox="0 0 320 360" height="360" width="320"><g><path xmlns="http://www.w3.org/2000/svg" d="M160 42.18c72.417 0 131.943 56.114 137.63 127.014h22.37c-1.137-17.82-5.308-34.882-12.133-51.185-7.962-18.957-19.716-36.398-34.502-50.805-14.787-14.787-31.848-26.161-50.806-34.503-20.095-8.341-40.948-12.891-62.559-12.891-21.611 0-42.464 4.171-62.559 12.512-18.957 7.962-36.398 19.716-50.806 34.503-14.787 14.787-26.161 31.848-34.502 50.805-6.825 16.303-10.995 33.744-12.133 51.185h22.37c5.687-70.521 65.213-126.635 137.63-126.635zM160 318.199c-72.417 0-131.943-56.114-137.63-127.014h-22.37c1.137 17.82 5.308 34.882 12.133 51.185 7.962 18.957 19.716 36.398 34.502 50.805 14.787 14.787 31.848 26.161 50.806 34.503 19.716 8.341 40.569 12.512 62.559 12.512 21.991 0 42.464-4.171 62.559-12.512 18.957-7.962 36.398-19.716 50.806-34.503 14.787-14.787 26.161-31.848 34.502-50.805 6.825-16.303 10.995-33.744 12.133-51.185h-22.37c-5.687 70.9-65.213 127.014-137.63 127.014z" fill="#8d021f" fill-rule="nonzero" stroke="none" stroke-width="1" stroke-linecap="butt" stroke-linejoin="miter" stroke-miterlimit="10" stroke-dasharray="" stroke-dashoffset="0" font-family="none" font-weight="none" font-size="none" text-anchor="none" style="mix-blend-mode: normal" data-fill-palette-color="tertiary"></path></g><g transform="matrix(1,0,0,1,56,110.36159815723393)"><svg viewBox="0 0 208 139.27680368553214" height="139.27680368553214" width="208"><g><svg viewBox="0 0 209.03999999999996 139.97318770395978" height="139.27680368553214" width="208"><g><svg viewBox="0 0 209.03999999999996 139.97318770395978" height="139.97318770395978" width="209.03999999999996"><g id="textblocktransform"><svg viewBox="0 0 209.03999999999996 139.97318770395978" height="139.97318770395978" width="209.03999999999996" id="textblock"><g><rect width="209.03999999999996" height="8.88843112784314" x="0" y="109.03275644444446" fill="#8d021f" opacity="1" stroke-width="0" stroke="transparent" fill-opacity="1" class="rect-o-0" data-fill-palette-color="primary" rx="1%" id="o-0" data-palette-color="#8d021f"></rect></g><g transform="matrix(1,0,0,1,0.5199999999999818,0)"><svg viewBox="0 0 208 98.56209150326798" height="98.56209150326798" width="208"><g transform="matrix(1,0,0,1,0,0)"><svg width="208" viewBox="2.3499999046325684 -35.650001525878906 76.5 36.25" height="98.56209150326798" data-palette-color="#8d021f"><path d="M23.8 0L13.65 0Q10.25 0 7.7-1.48 5.15-2.95 3.75-5.4 2.35-7.85 2.35-10.8L2.35-10.8 2.35-35 11.9-35 11.9-10.45Q11.9-9.35 12.68-8.55 13.45-7.75 14.55-7.75L14.55-7.75 23.8-7.75 23.8 0ZM52.95 0.6L52.95 0.6Q49.85 0.6 47.17-0.7 44.5-2 42.87-4.5 41.25-7 41.25-10.45L41.25-10.45 41.25-24.85Q41.25-25.6 40.92-26.18 40.6-26.75 40.05-27.05 39.5-27.35 38.8-27.35L38.8-27.35Q38.1-27.35 37.55-27.05 37-26.75 36.65-26.18 36.3-25.6 36.3-24.85L36.3-24.85 36.3 0 27.05 0 27.05-24.5Q27.05-27.9 28.65-30.4 30.25-32.9 32.92-34.27 35.6-35.65 38.8-35.65L38.8-35.65Q42-35.65 44.65-34.27 47.3-32.9 48.9-30.4 50.5-27.9 50.5-24.5L50.5-24.5 50.5-10.1Q50.5-9.4 50.85-8.83 51.2-8.25 51.75-7.93 52.3-7.6 52.95-7.6L52.95-7.6Q53.6-7.6 54.17-7.93 54.75-8.25 55.1-8.83 55.45-9.4 55.45-10.1L55.45-10.1 55.45-24.5Q55.45-27.9 57.05-30.4 58.65-32.9 61.32-34.27 64-35.65 67.2-35.65L67.2-35.65Q70.35-35.65 73-34.27 75.65-32.9 77.25-30.4 78.85-27.9 78.85-24.5L78.85-24.5 78.85 0 69.65 0 69.65-24.95Q69.65-25.65 69.3-26.2 68.95-26.75 68.4-27.05 67.85-27.35 67.2-27.35L67.2-27.35Q66.5-27.35 65.92-27.05 65.35-26.75 65.02-26.2 64.7-25.65 64.7-24.95L64.7-24.95 64.7-10.45Q64.7-7 63.05-4.5 61.4-2 58.75-0.7 56.1 0.6 52.95 0.6Z" opacity="1" transform="matrix(1,0,0,1,0,0)" fill="#8d021f" class="undefined-text-0" data-fill-palette-color="primary" id="text-0"></path></svg></g></svg></g><g transform="matrix(1,0,0,1,0,128.39185251346407)"><svg viewBox="0 0 122.1168 11.581335190495698" height="11.581335190495698" width="122.1168"><g transform="matrix(1,0,0,1,0,0)"><svg width="122.1168" viewBox="3.950000047683716 -36.29999923706055 488.1499938964844 46.29999923706055" height="11.581335190495698" data-palette-color="#ff908b"><path d="M23.2 0L3.95 0 3.95-34.1 23.05-34.1 23.05-30.95 7.7-30.95 7.7-19.05 19.7-19.05 19.7-16 7.7-16 7.7-3.1 23.2-3.1 23.2 0ZM46.65-23.4L50.05-23.4 50.05 0 46.65 0 46.65-3.45Q45.2-1.45 43.1-0.33 41 0.8 38.5 0.8L38.5 0.8Q35.15 0.8 32.5-0.8 29.85-2.4 28.35-5.25 26.85-8.1 26.85-11.75L26.85-11.75Q26.85-15.35 28.32-18.18 29.8-21 32.42-22.6 35.05-24.2 38.4-24.2L38.4-24.2Q40.95-24.2 43.07-23.08 45.2-21.95 46.65-19.9L46.65-19.9 46.65-23.4ZM38.4-2.3Q40.8-2.3 42.67-3.5 44.55-4.7 45.6-6.85 46.65-9 46.65-11.7L46.65-11.7Q46.65-14.4 45.6-16.55 44.55-18.7 42.67-19.9 40.8-21.1 38.4-21.1L38.4-21.1Q36.05-21.1 34.2-19.9 32.35-18.7 31.3-16.57 30.25-14.45 30.25-11.75L30.25-11.75Q30.25-9 31.3-6.85 32.35-4.7 34.2-3.5 36.05-2.3 38.4-2.3L38.4-2.3ZM61 0L57.6 0 57.6-20.3 53.6-20.3 53.6-23.4 57.6-23.4 57.6-31.15 61-31.15 61-23.4 66.4-23.4 66.4-20.3 61-20.3 61 0ZM93.44 0.8Q89.69 0.8 86.14-1.07 82.59-2.95 80.24-6.15L80.24-6.15 83.29-8.85Q85.09-6 87.89-4.33 90.69-2.65 93.94-2.65L93.94-2.65Q97.49-2.65 99.34-4.23 101.19-5.8 101.19-8.5L101.19-8.5Q101.19-11.45 99.22-13.03 97.24-14.6 92.94-15.8L92.94-15.8Q82.14-18.45 82.14-25.6L82.14-25.6Q82.14-30.05 85.04-32.45 87.94-34.85 93.09-34.85L93.09-34.85Q96.84-34.85 99.82-33.45 102.79-32.05 105.14-29.15L105.14-29.15 102.19-26.65Q100.39-29.1 98.24-30.28 96.09-31.45 93.09-31.45L93.09-31.45Q89.94-31.45 87.94-29.98 85.94-28.5 85.94-25.95L85.94-25.95Q85.94-23.35 87.79-21.83 89.64-20.3 94.04-19.25L94.04-19.25Q99.24-17.85 102.12-15.4 104.99-12.95 104.99-8.5L104.99-8.5Q104.99-5.75 103.59-3.65 102.19-1.55 99.57-0.38 96.94 0.8 93.44 0.8L93.44 0.8ZM114.04 0L110.64 0 110.64-36.3 114.04-36.3 114.04 0ZM130.64-24.2Q133.79-24.2 136.34-22.65 138.89-21.1 140.34-18.43 141.79-15.75 141.79-12.45L141.79-12.45Q141.79-11.5 141.74-11L141.74-11 122.49-11Q122.69-7.4 124.84-4.85 126.99-2.3 130.69-2.3L130.69-2.3Q133.69-2.3 135.66-3.43 137.64-4.55 138.84-6.55L138.84-6.55 141.54-4.75Q139.89-2.15 137.19-0.68 134.49 0.8 130.79 0.8L130.79 0.8Q127.39 0.8 124.74-0.8 122.09-2.4 120.59-5.25 119.09-8.1 119.09-11.7L119.09-11.7Q119.09-15.3 120.56-18.15 122.04-21 124.66-22.6 127.29-24.2 130.64-24.2L130.64-24.2ZM122.69-13.8L138.39-13.8Q137.89-17.45 135.94-19.28 133.99-21.1 130.64-21.1L130.64-21.1Q127.39-21.1 125.31-19.03 123.24-16.95 122.69-13.8L122.69-13.8ZM156.88-24.2Q160.03-24.2 162.58-22.65 165.13-21.1 166.58-18.43 168.03-15.75 168.03-12.45L168.03-12.45Q168.03-11.5 167.98-11L167.98-11 148.73-11Q148.93-7.4 151.08-4.85 153.23-2.3 156.93-2.3L156.93-2.3Q159.93-2.3 161.91-3.43 163.88-4.55 165.08-6.55L165.08-6.55 167.78-4.75Q166.13-2.15 163.43-0.68 160.73 0.8 157.03 0.8L157.03 0.8Q153.63 0.8 150.98-0.8 148.33-2.4 146.83-5.25 145.33-8.1 145.33-11.7L145.33-11.7Q145.33-15.3 146.81-18.15 148.28-21 150.91-22.6 153.53-24.2 156.88-24.2L156.88-24.2ZM148.93-13.8L164.63-13.8Q164.13-17.45 162.18-19.28 160.23-21.1 156.88-21.1L156.88-21.1Q153.63-21.1 151.56-19.03 149.48-16.95 148.93-13.8L148.93-13.8ZM184.63-24.2Q187.98-24.2 190.63-22.6 193.28-21 194.78-18.15 196.28-15.3 196.28-11.65L196.28-11.65Q196.28-8.05 194.81-5.23 193.33-2.4 190.71-0.8 188.08 0.8 184.73 0.8L184.73 0.8Q182.18 0.8 180.06-0.33 177.93-1.45 176.48-3.5L176.48-3.5 176.48 10 173.08 10 173.08-23.4 176.48-23.4 176.48-19.95Q177.93-21.95 180.03-23.08 182.13-24.2 184.63-24.2L184.63-24.2ZM184.73-2.3Q187.08-2.3 188.93-3.5 190.78-4.7 191.83-6.83 192.88-8.95 192.88-11.65L192.88-11.65Q192.88-14.4 191.83-16.55 190.78-18.7 188.93-19.9 187.08-21.1 184.73-21.1L184.73-21.1Q182.33-21.1 180.46-19.9 178.58-18.7 177.53-16.55 176.48-14.4 176.48-11.7L176.48-11.7Q176.48-9 177.53-6.85 178.58-4.7 180.46-3.5 182.33-2.3 184.73-2.3L184.73-2.3ZM225.73 0.8Q221.43 0.8 218.3-1.33 215.18-3.45 213.5-7.43 211.83-11.4 211.83-16.95L211.83-16.95Q211.83-22.55 213.45-26.58 215.08-30.6 218.1-32.73 221.13-34.85 225.28-34.85L225.28-34.85Q229.53-34.85 232.55-32.98 235.58-31.1 237.28-27.7L237.28-27.7 234.28-25.95Q232.68-28.9 230.53-30.18 228.38-31.45 225.28-31.45L225.28-31.45Q220.83-31.45 218.3-27.63 215.78-23.8 215.78-17L215.78-17Q215.78-12.55 216.93-9.3 218.08-6.05 220.23-4.33 222.38-2.6 225.23-2.6L225.23-2.6Q228.78-2.6 230.75-4.17 232.73-5.75 234.43-9.1L234.43-9.1 237.58-7.2Q235.78-3.3 232.8-1.25 229.83 0.8 225.73 0.8L225.73 0.8ZM252.67 0.8Q249.32 0.8 246.67-0.8 244.02-2.4 242.52-5.28 241.02-8.15 241.02-11.75L241.02-11.75Q241.02-15.35 242.5-18.18 243.97-21 246.6-22.6 249.22-24.2 252.57-24.2L252.57-24.2Q255.92-24.2 258.57-22.6 261.22-21 262.72-18.15 264.22-15.3 264.22-11.7L264.22-11.7Q264.22-8.1 262.75-5.25 261.27-2.4 258.65-0.8 256.02 0.8 252.67 0.8L252.67 0.8ZM252.57-2.3Q254.97-2.3 256.85-3.5 258.72-4.7 259.77-6.85 260.82-9 260.82-11.7L260.82-11.7Q260.82-14.4 259.77-16.55 258.72-18.7 256.85-19.9 254.97-21.1 252.57-21.1L252.57-21.1Q250.22-21.1 248.37-19.9 246.52-18.7 245.47-16.57 244.42-14.45 244.42-11.75L244.42-11.75Q244.42-9 245.47-6.85 246.52-4.7 248.37-3.5 250.22-2.3 252.57-2.3L252.57-2.3ZM287.37-36.3L290.77-36.3 290.77 0 287.37 0 287.37-3.45Q285.92-1.45 283.82-0.33 281.72 0.8 279.22 0.8L279.22 0.8Q275.87 0.8 273.22-0.8 270.57-2.4 269.07-5.25 267.57-8.1 267.57-11.75L267.57-11.75Q267.57-15.35 269.05-18.18 270.52-21 273.15-22.6 275.77-24.2 279.12-24.2L279.12-24.2Q281.67-24.2 283.8-23.08 285.92-21.95 287.37-19.9L287.37-19.9 287.37-36.3ZM279.12-2.3Q281.52-2.3 283.4-3.5 285.27-4.7 286.32-6.85 287.37-9 287.37-11.7L287.37-11.7Q287.37-14.4 286.32-16.55 285.27-18.7 283.4-19.9 281.52-21.1 279.12-21.1L279.12-21.1Q276.77-21.1 274.92-19.9 273.07-18.7 272.02-16.57 270.97-14.45 270.97-11.75L270.97-11.75Q270.97-9 272.02-6.85 273.07-4.7 274.92-3.5 276.77-2.3 279.12-2.3L279.12-2.3ZM307.17-24.2Q310.32-24.2 312.87-22.65 315.42-21.1 316.87-18.43 318.32-15.75 318.32-12.45L318.32-12.45Q318.32-11.5 318.27-11L318.27-11 299.02-11Q299.22-7.4 301.37-4.85 303.52-2.3 307.22-2.3L307.22-2.3Q310.22-2.3 312.19-3.43 314.17-4.55 315.37-6.55L315.37-6.55 318.07-4.75Q316.42-2.15 313.72-0.68 311.02 0.8 307.32 0.8L307.32 0.8Q303.92 0.8 301.27-0.8 298.62-2.4 297.12-5.25 295.62-8.1 295.62-11.7L295.62-11.7Q295.62-15.3 297.09-18.15 298.57-21 301.19-22.6 303.82-24.2 307.17-24.2L307.17-24.2ZM299.22-13.8L314.92-13.8Q314.42-17.45 312.47-19.28 310.52-21.1 307.17-21.1L307.17-21.1Q303.92-21.1 301.84-19.03 299.77-16.95 299.22-13.8L299.22-13.8ZM368.36 0L364.41 0 355.76-15.05 349.01-15.05 349.01 0 345.26 0 345.26-34.1 356.66-34.1Q359.76-34.1 362.11-32.9 364.46-31.7 365.71-29.53 366.96-27.35 366.96-24.55L366.96-24.55Q366.96-21.15 364.91-18.73 362.86-16.3 359.46-15.45L359.46-15.45 368.36 0ZM349.01-31L349.01-18.15 356.16-18.15Q359.46-18.15 361.24-19.9 363.01-21.65 363.01-24.55L363.01-24.55Q363.01-27.45 361.24-29.23 359.46-31 356.16-31L356.16-31 349.01-31ZM383.56-24.2Q386.71-24.2 389.26-22.65 391.81-21.1 393.26-18.43 394.71-15.75 394.71-12.45L394.71-12.45Q394.71-11.5 394.66-11L394.66-11 375.41-11Q375.61-7.4 377.76-4.85 379.91-2.3 383.61-2.3L383.61-2.3Q386.61-2.3 388.59-3.43 390.56-4.55 391.76-6.55L391.76-6.55 394.46-4.75Q392.81-2.15 390.11-0.68 387.41 0.8 383.71 0.8L383.71 0.8Q380.31 0.8 377.66-0.8 375.01-2.4 373.51-5.25 372.01-8.1 372.01-11.7L372.01-11.7Q372.01-15.3 373.49-18.15 374.96-21 377.59-22.6 380.21-24.2 383.56-24.2L383.56-24.2ZM375.61-13.8L391.31-13.8Q390.81-17.45 388.86-19.28 386.91-21.1 383.56-21.1L383.56-21.1Q380.31-21.1 378.24-19.03 376.16-16.95 375.61-13.8L375.61-13.8ZM411.31-24.2Q414.66-24.2 417.31-22.6 419.96-21 421.46-18.15 422.96-15.3 422.96-11.65L422.96-11.65Q422.96-8.05 421.48-5.23 420.01-2.4 417.38-0.8 414.76 0.8 411.41 0.8L411.41 0.8Q408.86 0.8 406.73-0.33 404.61-1.45 403.16-3.5L403.16-3.5 403.16 10 399.76 10 399.76-23.4 403.16-23.4 403.16-19.95Q404.61-21.95 406.71-23.08 408.81-24.2 411.31-24.2L411.31-24.2ZM411.41-2.3Q413.76-2.3 415.61-3.5 417.46-4.7 418.51-6.83 419.56-8.95 419.56-11.65L419.56-11.65Q419.56-14.4 418.51-16.55 417.46-18.7 415.61-19.9 413.76-21.1 411.41-21.1L411.41-21.1Q409.01-21.1 407.13-19.9 405.26-18.7 404.21-16.55 403.16-14.4 403.16-11.7L403.16-11.7Q403.16-9 404.21-6.85 405.26-4.7 407.13-3.5 409.01-2.3 411.41-2.3L411.41-2.3ZM437.86-24.2Q441.01-24.2 443.56-22.65 446.11-21.1 447.56-18.43 449.01-15.75 449.01-12.45L449.01-12.45Q449.01-11.5 448.96-11L448.96-11 429.71-11Q429.91-7.4 432.06-4.85 434.21-2.3 437.91-2.3L437.91-2.3Q440.91-2.3 442.88-3.43 444.86-4.55 446.06-6.55L446.06-6.55 448.76-4.75Q447.11-2.15 444.41-0.68 441.71 0.8 438.01 0.8L438.01 0.8Q434.61 0.8 431.96-0.8 429.31-2.4 427.81-5.25 426.31-8.1 426.31-11.7L426.31-11.7Q426.31-15.3 427.78-18.15 429.26-21 431.88-22.6 434.51-24.2 437.86-24.2L437.86-24.2ZM429.91-13.8L445.61-13.8Q445.11-17.45 443.16-19.28 441.21-21.1 437.86-21.1L437.86-21.1Q434.61-21.1 432.53-19.03 430.46-16.95 429.91-13.8L429.91-13.8ZM472.35-23.4L475.75-23.4 475.75 0 472.35 0 472.35-3.45Q470.9-1.45 468.8-0.33 466.7 0.8 464.2 0.8L464.2 0.8Q460.85 0.8 458.2-0.8 455.55-2.4 454.05-5.25 452.55-8.1 452.55-11.75L452.55-11.75Q452.55-15.35 454.03-18.18 455.5-21 458.13-22.6 460.75-24.2 464.1-24.2L464.1-24.2Q466.65-24.2 468.78-23.08 470.9-21.95 472.35-19.9L472.35-19.9 472.35-23.4ZM464.1-2.3Q466.5-2.3 468.38-3.5 470.25-4.7 471.3-6.85 472.35-9 472.35-11.7L472.35-11.7Q472.35-14.4 471.3-16.55 470.25-18.7 468.38-19.9 466.5-21.1 464.1-21.1L464.1-21.1Q461.75-21.1 459.9-19.9 458.05-18.7 457-16.57 455.95-14.45 455.95-11.75L455.95-11.75Q455.95-9 457-6.85 458.05-4.7 459.9-3.5 461.75-2.3 464.1-2.3L464.1-2.3ZM486.7 0L483.3 0 483.3-20.3 479.3-20.3 479.3-23.4 483.3-23.4 483.3-31.15 486.7-31.15 486.7-23.4 492.1-23.4 492.1-20.3 486.7-20.3 486.7 0Z" opacity="1" transform="matrix(1,0,0,1,0,0)" fill="#ff908b" class="undefined-text-1" data-fill-palette-color="secondary" id="text-1"></path></svg></g></svg></g></svg></g></svg></g></svg></g></svg></g></svg></g><defs></defs></svg><rect width="320" height="360" fill="none" stroke="none" visibility="hidden"></rect></g></svg></g></svg>